<?xml version="1.0" encoding="UTF-8" standalone="no"?>
<svg
   width="64"
   height="64"
   version="1.1"
   id="svg1"
   sodipodi:docname="b_button_filled.svg"
   inkscape:version="1.4 (e7c3feb100, 2024-10-09)"
   xmlns:inkscape="http://www.inkscape.org/namespaces/inkscape"
   xmlns:sodipodi="http://sodipodi.sourceforge.net/DTD/sodipodi-0.dtd"
   xmlns="http://www.w3.org/2000/svg"
   xmlns:svg="http://www.w3.org/2000/svg">
  <sodipodi:namedview
     id="namedview1"
     pagecolor="#ffffff"
     bordercolor="#666666"
     borderopacity="1.0"
     inkscape:showpageshadow="2"
     inkscape:pageopacity="0.0"
     inkscape:pagecheckerboard="0"
     inkscape:deskcolor="#d1d1d1"
     inkscape:zoom="8.59375"
     inkscape:cx="32"
     inkscape:cy="32"
     inkscape:window-width="1364"
     inkscape:window-height="761"
     inkscape:window-x="0"
     inkscape:window-y="1104"
     inkscape:window-maximized="1"
     inkscape:current-layer="svg1" />
  <defs
     id="defs1" />
  <rect
     style="fill:#1a1a1a"
     id="rect1"
     width="22.807272"
     height="29.207273"
     x="20.48"
     y="17.803637"
     ry="11.403636" />
  <g
     id="g1">
    <path
       stroke="none"
       fill="#EF4E29"
       d="M56 32 Q56 42 48.95 48.95 42 56 32 56 22.05 56 15 48.95 8 42 8 32 8 22.05 15 15 22.05 8 32 8 42 8 48.95 15 56 22.05 56 32 M37 28 Q37 28.85 36.45 29.4 L36.4 29.4 Q35.8 30 35 30 L29 30 29 26 35 26 Q35.8 26 36.35 26.55 L36.45 26.65 Q37 27.2 37 28 M41 36 Q41 33.7 39.5 32 41 30.3 41 28 41 25.55 39.25 23.8 L39.2 23.75 Q37.45 22 35 22 L25 22 25 42 35 42 Q37.45 42 39.2 40.25 L39.25 40.2 Q41 38.45 41 36 M37 36 Q37 36.8 36.45 37.35 L36.35 37.45 Q35.8 38 35 38 L29 38 29 34 35 34 Q35.8 34 36.4 34.6 L36.45 34.6 Q37 35.15 37 36"
       id="path1" />
  </g>
</svg>
