<?xml version="1.0" encoding="UTF-8" standalone="no"?>
<svg
   width="64"
   height="64"
   version="1.1"
   id="svg1"
   sodipodi:docname="x_button_filled.svg"
   inkscape:version="1.4 (e7c3feb100, 2024-10-09)"
   xmlns:inkscape="http://www.inkscape.org/namespaces/inkscape"
   xmlns:sodipodi="http://sodipodi.sourceforge.net/DTD/sodipodi-0.dtd"
   xmlns="http://www.w3.org/2000/svg"
   xmlns:svg="http://www.w3.org/2000/svg">
  <sodipodi:namedview
     id="namedview1"
     pagecolor="#ffffff"
     bordercolor="#666666"
     borderopacity="1.0"
     inkscape:showpageshadow="2"
     inkscape:pageopacity="0.0"
     inkscape:pagecheckerboard="0"
     inkscape:deskcolor="#d1d1d1"
     inkscape:zoom="8.59375"
     inkscape:cx="31.941818"
     inkscape:cy="32"
     inkscape:window-width="1364"
     inkscape:window-height="761"
     inkscape:window-x="0"
     inkscape:window-y="1104"
     inkscape:window-maximized="1"
     inkscape:current-layer="svg1" />
  <defs
     id="defs1" />
  <rect
     style="fill:#1a1a1a"
     id="rect2"
     width="30.603636"
     height="28.858181"
     x="16.98909"
     y="16.290909"
     ry="14.42909" />
  <g
     id="g1">
    <path
       stroke="none"
       fill="#009FEB"
       d="M56 32 Q56 42 48.95 48.95 42 56 32 56 22.05 56 15 48.95 8 42 8 32 8 22.05 15 15 22.05 8 32 8 42 8 48.95 15 56 22.05 56 32 M23 25 L29 32 23 39 23 40 25.25 42 26.4 42 32 35.5 37.65 42 38.75 42 41 40 41 39 35 32 41 25 41 24 38.75 22 37.65 22 32 28.55 26.4 22 25.25 22 23 24 23 25"
       id="path1" />
  </g>
</svg>
